<svg width="45" height="44" viewBox="0 0 45 44" fill="none" xmlns="http://www.w3.org/2000/svg">
<path d="M44.0742 0H0.0742188V44H44.0742V0Z" fill="#E2001A"/>
<path d="M21.8274 28.4651V14.8643H30.1413V17.0126H24.0658V20.738H29.2968V22.8491H24.0658V28.4651H21.8274ZM39.5789 28.4651L36.5365 22.9888H34.264V28.4651H32.0257V14.8643H37.0488C39.0698 14.8643 41.7676 15.4324 41.7676 18.8163C41.7676 21.1168 40.5755 22.1816 38.6941 22.6783L42.2302 28.4651H39.5727H39.5789ZM36.7756 20.9553C38.8028 20.9553 39.4392 20.0892 39.4392 18.7915C39.4392 17.9346 39.0543 16.8729 36.8532 16.8729H34.2671V20.9553H36.7756ZM14.4356 20.2071C12.8213 19.7539 12.6319 18.9033 12.6319 18.3507C12.6319 17.2951 13.4484 16.5873 14.9199 16.5873C15.9351 16.5873 16.8323 17.0219 17.4873 17.8881L19.26 16.8543C18.4001 15.5908 17.0682 14.5383 14.9137 14.5383C12.3711 14.5383 10.2849 16.1185 10.2849 18.45C10.2849 20.7815 12.2563 21.7904 14.358 22.3803C14.358 22.3803 15.3235 22.6597 15.3328 22.6628C17.1365 23.1378 17.2762 23.9543 17.2762 24.659C17.2762 25.9473 15.9258 26.7452 14.7585 26.7452C13.5912 26.7452 12.5698 26.3447 11.7844 24.9508L10.0117 26.0063C11.1604 27.9808 12.5388 28.7849 14.7709 28.7849C17.2328 28.7849 19.6139 26.9066 19.6139 24.5596C19.6139 21.7811 17.3601 20.9957 15.4104 20.4896C15.4011 20.4896 14.4387 20.2102 14.4387 20.2102L14.4356 20.2071Z" fill="white"/>
</svg>
